<svg width="793.551" height="176.486" viewBox="0 0 209.96 46.695" xmlns="http://www.w3.org/2000/svg">
    <path style="fill:#fff;stroke-width:20.8032;stroke-linecap:round;stroke-linejoin:round;paint-order:fill markers stroke" d="M23.18 121.855A23.13 23.13 0 0 0 0 145.035v.336a23.129 23.129 0 0 0 23.18 23.18h163.6a23.129 23.129 0 0 0 23.18-23.18v-.336a23.13 23.13 0 0 0-23.18-23.18zm117.9 11.867h2.256V151.77h2.256v2.255h-2.256v-2.255h-2.256v-9.024zm20.302 0h2.256v6.768h6.768v2.255h2.255v9.024h-2.255v2.255h-9.024v-10.15zm9.024 18.047v-9.024h-6.768v9.024h3.384zm4.511-18.047h2.256V151.77h2.256v2.255h-2.256v-2.255h-2.256v-9.024zm-130.835 2.256h2.255v2.256h-2.255v-1.128zm20.302 0h2.255v4.512h4.512v2.255h-4.512v9.024h4.512v2.255h-4.512v-2.255h-2.255v-9.024H62.127v-2.255H64.384v-2.256zm72.185 0h2.256v2.256h-2.256v-1.128zM19.268 140.49h9.023v2.255h2.255v6.768h-2.255V151.769h-6.768V156.28h-2.255v-7.895zm9.023 9.023v-6.768h-6.768v6.768h3.384zm4.512-9.023h2.255v2.255h2.256v-2.255H41.825v2.255H37.314v2.256h-2.256v9.023h-2.255v-6.767zm11.279 0h2.255v13.534h-2.255v-6.767zm4.51 0H57.617v2.255h2.256v11.28h-2.256v-11.28H50.85v11.28h-2.256v-6.768zm27.07 0h6.768v2.255H75.663v2.256H80.174v2.256h2.256v4.512h-2.256v2.255H73.407v-2.255H80.174v-4.512H75.663v-2.256H73.407v-2.256H75.663v-1.127zm20.303 0h9.023v2.255H107.244v11.28H98.22v-2.256h-2.255v-4.512h2.255v-2.256h6.768v-2.256h-9.023v-1.127zm2.255 6.767v4.512h6.768v-4.512h-3.384zm11.28-6.767h2.255V145h2.256v4.512h2.256V145h2.255V140.49H120.778V145H118.522v4.512h-2.255V154.024h-2.256V149.513h-2.256V145h-2.256v-2.256zm13.534 0h9.023v2.255h2.256v11.28h-9.023v-2.256h-2.256v-4.512h2.256v-2.256H132.057v-2.256h-9.023v-1.127zm2.256 6.767v4.512H132.057v-4.512h-3.384zm11.279-6.767h2.256v13.534h-2.256v-6.767zm11.279 0h9.023v2.255h2.256v11.28h-9.023v-2.256h-2.256v-4.512h2.256v-2.256H156.87v-2.256h-9.023v-1.127zm2.256 6.767v4.512H156.87v-4.512h-3.384zm33.859-6.767H190.73v2.255h2.256v4.512h-9.023v4.512h9.023v2.255h-9.023v-2.255h-2.256v-9.024h2.256v-1.127zm0 2.255v2.256H190.73v-2.256h-3.383z" transform="translate(0 -121.855)"/>
</svg>
