<?xml version="1.0" encoding="UTF-8" standalone="no"?>
<svg
   width="908.5625"
   height="177.24001"
   viewBox="0 0 240.39031 46.895"
   version="1.1"
   id="svg1"
   sodipodi:docname="prints.svg"
   inkscape:version="1.4.2 (ebf0e940, 2025-05-08)"
   xmlns:inkscape="http://www.inkscape.org/namespaces/inkscape"
   xmlns:sodipodi="http://sodipodi.sourceforge.net/DTD/sodipodi-0.dtd"
   xmlns="http://www.w3.org/2000/svg"
   xmlns:svg="http://www.w3.org/2000/svg">
  <defs
     id="defs1" />
  <sodipodi:namedview
     id="namedview1"
     pagecolor="#505050"
     bordercolor="#eeeeee"
     borderopacity="1"
     inkscape:showpageshadow="0"
     inkscape:pageopacity="0"
     inkscape:pagecheckerboard="0"
     inkscape:deskcolor="#505050"
     inkscape:zoom="0.75019187"
     inkscape:cx="412.56112"
     inkscape:cy="88.643989"
     inkscape:window-width="1440"
     inkscape:window-height="872"
     inkscape:window-x="0"
     inkscape:window-y="28"
     inkscape:window-maximized="0"
     inkscape:current-layer="svg1" />
  <path
     id="rect1"
     style="fill:#ffffff;fill-opacity:1;stroke-width:0.297965"
     d="M 23.206246 0 C 10.349638 0 -0.00072944197 10.350368 -0.00072944197 23.206975 L -0.00072944197 23.688085 C -0.00072944197 36.544693 10.349638 46.895061 23.206246 46.895061 L 217.18458 46.895061 C 230.04119 46.895061 240.39104 36.544693 240.39104 23.688085 L 240.39104 23.206975 C 240.39104 10.350368 230.04119 2.5066502e-15 217.18458 0 L 23.206246 0 z M 142.19031 12.515065 L 143.29929 12.515065 L 144.40776 12.515065 L 144.40776 21.383821 L 144.40776 30.252061 L 145.51622 30.252061 L 146.62469 30.252061 L 146.62469 31.360526 L 146.62469 32.469508 L 145.51622 32.469508 L 144.40776 32.469508 L 144.40776 31.360526 L 144.40776 30.252061 L 143.29929 30.252061 L 142.19031 30.252061 L 142.19031 21.383821 L 142.19031 12.515065 z M 162.14475 12.515065 L 163.25322 12.515065 L 164.3622 12.515065 L 164.3622 15.840978 L 164.3622 19.166374 L 167.6876 19.166374 L 171.01351 19.166374 L 171.01351 20.274839 L 171.01351 21.383821 L 172.12198 21.383821 L 173.23044 21.383821 L 173.23044 25.817682 L 173.23044 30.252061 L 172.12198 30.252061 L 171.01351 30.252061 L 171.01351 31.360526 L 171.01351 32.469508 L 166.57913 32.469508 L 162.14475 32.469508 L 162.14475 22.492286 L 162.14475 12.515065 z M 171.01351 30.252061 L 171.01351 25.817682 L 171.01351 21.383821 L 167.6876 21.383821 L 164.3622 21.383821 L 164.3622 25.817682 L 164.3622 30.252061 L 167.6876 30.252061 L 171.01351 30.252061 z M 175.44789 12.515065 L 176.55635 12.515065 L 177.66482 12.515065 L 177.66482 21.383821 L 177.66482 30.252061 L 178.77329 30.252061 L 179.88227 30.252061 L 179.88227 31.360526 L 179.88227 32.469508 L 178.77329 32.469508 L 177.66482 32.469508 L 177.66482 31.360526 L 177.66482 30.252061 L 176.55635 30.252061 L 175.44789 30.252061 L 175.44789 21.383821 L 175.44789 12.515065 z M 212.20501 13.421991 L 214.14806 13.421991 L 216.09162 13.421991 L 216.09162 15.365552 L 216.09162 17.308596 L 218.03466 17.308596 L 219.97822 17.308596 L 219.97822 19.252157 L 219.97822 21.195201 L 221.92127 21.195201 L 223.86483 21.195201 L 223.86483 23.138762 L 223.86483 25.081806 L 221.92127 25.081806 L 219.97822 25.081806 L 219.97822 27.025367 L 219.97822 28.968411 L 218.03466 28.968411 L 216.09162 28.968411 L 216.09162 30.911972 L 216.09162 32.855533 L 214.14806 32.855533 L 212.20501 32.855533 L 212.20501 30.911972 L 212.20501 28.968411 L 214.14806 28.968411 L 216.09162 28.968411 L 216.09162 27.025367 L 216.09162 25.081806 L 218.03466 25.081806 L 219.97822 25.081806 L 219.97822 23.138762 L 219.97822 21.195201 L 218.03466 21.195201 L 216.09162 21.195201 L 216.09162 19.252157 L 216.09162 17.308596 L 214.14806 17.308596 L 212.20501 17.308596 L 212.20501 15.365552 L 212.20501 13.421991 z M 31.332925 14.731995 L 32.44139 14.731995 L 33.549855 14.731995 L 33.549855 15.840978 L 33.549855 16.949443 L 32.44139 16.949443 L 31.332925 16.949443 L 31.332925 15.840978 L 31.332925 14.731995 z M 137.75593 14.731995 L 138.86492 14.731995 L 139.97338 14.731995 L 139.97338 15.840978 L 139.97338 16.949443 L 138.86492 16.949443 L 137.75593 16.949443 L 137.75593 15.840978 L 137.75593 14.731995 z M 18.02979 19.166374 L 22.464168 19.166374 L 26.898546 19.166374 L 26.898546 20.274839 L 26.898546 21.383821 L 28.007012 21.383821 L 29.115477 21.383821 L 29.115477 24.709217 L 29.115477 28.03513 L 28.007012 28.03513 L 26.898546 28.03513 L 26.898546 29.143595 L 26.898546 30.252061 L 23.572634 30.252061 L 20.247238 30.252061 L 20.247238 32.469508 L 20.247238 34.686439 L 19.138772 34.686439 L 18.02979 34.686439 L 18.02979 26.926665 L 18.02979 19.166374 z M 26.898546 28.03513 L 26.898546 24.709217 L 26.898546 21.383821 L 23.572634 21.383821 L 20.247238 21.383821 L 20.247238 24.709217 L 20.247238 28.03513 L 23.572634 28.03513 L 26.898546 28.03513 z M 31.332925 19.166374 L 32.44139 19.166374 L 33.549855 19.166374 L 33.549855 25.817682 L 33.549855 32.469508 L 32.44139 32.469508 L 31.332925 32.469508 L 31.332925 25.817682 L 31.332925 19.166374 z M 38.006454 19.166374 L 41.332367 19.166374 L 44.657763 19.166374 L 44.657763 20.274839 L 44.657763 21.383821 L 45.766745 21.383821 L 46.875211 21.383821 L 46.875211 23.600752 L 46.875211 25.817682 L 42.440833 25.817682 L 38.006454 25.817682 L 38.006454 28.03513 L 38.006454 30.252061 L 42.440833 30.252061 L 46.875211 30.252061 L 46.875211 31.360526 L 46.875211 32.469508 L 42.440833 32.469508 L 38.006454 32.469508 L 38.006454 31.360526 L 38.006454 30.252061 L 36.897989 30.252061 L 35.789524 30.252061 L 35.789524 25.817682 L 35.789524 21.383821 L 36.897989 21.383821 L 38.006454 21.383821 L 38.006454 20.274839 L 38.006454 19.166374 z M 38.006454 21.383821 L 38.006454 22.492286 L 38.006454 23.600752 L 41.332367 23.600752 L 44.657763 23.600752 L 44.657763 22.492286 L 44.657763 21.383821 L 41.332367 21.383821 L 38.006454 21.383821 z M 51.309589 19.166374 L 55.743967 19.166374 L 60.177828 19.166374 L 60.177828 20.274839 L 60.177828 21.383821 L 55.743967 21.383821 L 51.309589 21.383821 L 51.309589 25.817682 L 51.309589 30.252061 L 55.743967 30.252061 L 60.177828 30.252061 L 60.177828 31.360526 L 60.177828 32.469508 L 55.743967 32.469508 L 51.309589 32.469508 L 51.309589 31.360526 L 51.309589 30.252061 L 50.200607 30.252061 L 49.092141 30.252061 L 49.092141 25.817682 L 49.092141 21.383821 L 50.200607 21.383821 L 51.309589 21.383821 L 51.309589 20.274839 L 51.309589 19.166374 z M 64.612207 19.166374 L 67.938119 19.166374 L 71.264032 19.166374 L 71.264032 20.274839 L 71.264032 21.383821 L 72.372498 21.383821 L 73.480963 21.383821 L 73.480963 23.600752 L 73.480963 25.817682 L 69.046585 25.817682 L 64.612207 25.817682 L 64.612207 28.03513 L 64.612207 30.252061 L 69.046585 30.252061 L 73.480963 30.252061 L 73.480963 31.360526 L 73.480963 32.469508 L 69.046585 32.469508 L 64.612207 32.469508 L 64.612207 31.360526 L 64.612207 30.252061 L 63.503741 30.252061 L 62.395276 30.252061 L 62.395276 25.817682 L 62.395276 21.383821 L 63.503741 21.383821 L 64.612207 21.383821 L 64.612207 20.274839 L 64.612207 19.166374 z M 64.612207 21.383821 L 64.612207 22.492286 L 64.612207 23.600752 L 67.938119 23.600752 L 71.264032 23.600752 L 71.264032 22.492286 L 71.264032 21.383821 L 67.938119 21.383821 L 64.612207 21.383821 z M 77.89312 19.166374 L 81.219033 19.166374 L 84.544429 19.166374 L 84.544429 20.274839 L 84.544429 21.383821 L 81.219033 21.383821 L 77.89312 21.383821 L 77.89312 22.492286 L 77.89312 23.600752 L 80.110051 23.600752 L 82.327498 23.600752 L 82.327498 24.709217 L 82.327498 25.817682 L 83.435964 25.817682 L 84.544429 25.817682 L 84.544429 28.03513 L 84.544429 30.252061 L 83.435964 30.252061 L 82.327498 30.252061 L 82.327498 31.360526 L 82.327498 32.469508 L 79.001585 32.469508 L 75.676189 32.469508 L 75.676189 31.360526 L 75.676189 30.252061 L 79.001585 30.252061 L 82.327498 30.252061 L 82.327498 28.03513 L 82.327498 25.817682 L 80.110051 25.817682 L 77.89312 25.817682 L 77.89312 24.709217 L 77.89312 23.600752 L 76.784655 23.600752 L 75.676189 23.600752 L 75.676189 22.492286 L 75.676189 21.383821 L 76.784655 21.383821 L 77.89312 21.383821 L 77.89312 20.274839 L 77.89312 19.166374 z M 97.847563 19.166374 L 102.28194 19.166374 L 106.7158 19.166374 L 106.7158 20.274839 L 106.7158 21.383821 L 107.82479 21.383821 L 108.93325 21.383821 L 108.93325 26.926665 L 108.93325 32.469508 L 104.49887 32.469508 L 100.06449 32.469508 L 100.06449 31.360526 L 100.06449 30.252061 L 98.956029 30.252061 L 97.847563 30.252061 L 97.847563 28.03513 L 97.847563 25.817682 L 98.956029 25.817682 L 100.06449 25.817682 L 100.06449 24.709217 L 100.06449 23.600752 L 103.39041 23.600752 L 106.7158 23.600752 L 106.7158 22.492286 L 106.7158 21.383821 L 102.28194 21.383821 L 97.847563 21.383821 L 97.847563 20.274839 L 97.847563 19.166374 z M 100.06449 25.817682 L 100.06449 28.03513 L 100.06449 30.252061 L 103.39041 30.252061 L 106.7158 30.252061 L 106.7158 28.03513 L 106.7158 25.817682 L 103.39041 25.817682 L 100.06449 25.817682 z M 111.15018 19.166374 L 112.25916 19.166374 L 113.36763 19.166374 L 113.36763 21.383821 L 113.36763 23.600752 L 114.47609 23.600752 L 115.58456 23.600752 L 115.58456 25.817682 L 115.58456 28.03513 L 116.69302 28.03513 L 117.80201 28.03513 L 117.80201 25.817682 L 117.80201 23.600752 L 118.91047 23.600752 L 120.01894 23.600752 L 120.01894 21.383821 L 120.01894 19.166374 L 121.1274 19.166374 L 122.23587 19.166374 L 122.23587 21.383821 L 122.23587 23.600752 L 121.1274 23.600752 L 120.01894 23.600752 L 120.01894 25.817682 L 120.01894 28.03513 L 118.91047 28.03513 L 117.80201 28.03513 L 117.80201 30.252061 L 117.80201 32.469508 L 116.69302 32.469508 L 115.58456 32.469508 L 115.58456 30.252061 L 115.58456 28.03513 L 114.47609 28.03513 L 113.36763 28.03513 L 113.36763 25.817682 L 113.36763 23.600752 L 112.25916 23.600752 L 111.15018 23.600752 L 111.15018 21.383821 L 111.15018 19.166374 z M 124.45332 19.166374 L 128.88769 19.166374 L 133.32207 19.166374 L 133.32207 20.274839 L 133.32207 21.383821 L 134.43054 21.383821 L 135.539 21.383821 L 135.539 26.926665 L 135.539 32.469508 L 131.10462 32.469508 L 126.67025 32.469508 L 126.67025 31.360526 L 126.67025 30.252061 L 125.56178 30.252061 L 124.45332 30.252061 L 124.45332 28.03513 L 124.45332 25.817682 L 125.56178 25.817682 L 126.67025 25.817682 L 126.67025 24.709217 L 126.67025 23.600752 L 129.99616 23.600752 L 133.32207 23.600752 L 133.32207 22.492286 L 133.32207 21.383821 L 128.88769 21.383821 L 124.45332 21.383821 L 124.45332 20.274839 L 124.45332 19.166374 z M 126.67025 25.817682 L 126.67025 28.03513 L 126.67025 30.252061 L 129.99616 30.252061 L 133.32207 30.252061 L 133.32207 28.03513 L 133.32207 25.817682 L 129.99616 25.817682 L 126.67025 25.817682 z M 137.75593 19.166374 L 138.86492 19.166374 L 139.97338 19.166374 L 139.97338 25.817682 L 139.97338 32.469508 L 138.86492 32.469508 L 137.75593 32.469508 L 137.75593 25.817682 L 137.75593 19.166374 z M 148.84214 19.166374 L 153.276 19.166374 L 157.71038 19.166374 L 157.71038 20.274839 L 157.71038 21.383821 L 158.81884 21.383821 L 159.92782 21.383821 L 159.92782 26.926665 L 159.92782 32.469508 L 155.49345 32.469508 L 151.05907 32.469508 L 151.05907 31.360526 L 151.05907 30.252061 L 149.9506 30.252061 L 148.84214 30.252061 L 148.84214 28.03513 L 148.84214 25.817682 L 149.9506 25.817682 L 151.05907 25.817682 L 151.05907 24.709217 L 151.05907 23.600752 L 154.38498 23.600752 L 157.71038 23.600752 L 157.71038 22.492286 L 157.71038 21.383821 L 153.276 21.383821 L 148.84214 21.383821 L 148.84214 20.274839 L 148.84214 19.166374 z M 151.05907 25.817682 L 151.05907 28.03513 L 151.05907 30.252061 L 154.38498 30.252061 L 157.71038 30.252061 L 157.71038 28.03513 L 157.71038 25.817682 L 154.38498 25.817682 L 151.05907 25.817682 z M 184.33835 19.166374 L 187.66426 19.166374 L 190.99018 19.166374 L 190.99018 20.274839 L 190.99018 21.383821 L 192.09864 21.383821 L 193.20711 21.383821 L 193.20711 23.600752 L 193.20711 25.817682 L 188.77273 25.817682 L 184.33835 25.817682 L 184.33835 28.03513 L 184.33835 30.252061 L 188.77273 30.252061 L 193.20711 30.252061 L 193.20711 31.360526 L 193.20711 32.469508 L 188.77273 32.469508 L 184.33835 32.469508 L 184.33835 31.360526 L 184.33835 30.252061 L 183.22988 30.252061 L 182.12142 30.252061 L 182.12142 25.817682 L 182.12142 21.383821 L 183.22988 21.383821 L 184.33835 21.383821 L 184.33835 20.274839 L 184.33835 19.166374 z M 184.33835 21.383821 L 184.33835 22.492286 L 184.33835 23.600752 L 187.66426 23.600752 L 190.99018 23.600752 L 190.99018 22.492286 L 190.99018 21.383821 L 187.66426 21.383821 L 184.33835 21.383821 z " />
</svg>
