<svg width="566.631" height="177.24" viewBox="0 0 149.921 46.895" xmlns="http://www.w3.org/2000/svg">
    <path style="fill:#fff;stroke-width:22;stroke-linecap:round;stroke-linejoin:round;paint-order:fill markers stroke" d="M26.467 190.066a23.219 23.219 0 0 0-23.27 23.27v.355a23.22 23.22 0 0 0 23.27 23.27H129.85a23.219 23.219 0 0 0 23.27-23.27v-.356a23.218 23.218 0 0 0-23.27-23.27zm96.96 11.45h5.08v5.08h5.08V211.674h5.08v5.08h-5.08v5.08h-5.08v5.08h-5.08v-5.08h5.08v-5.08h5.08v-5.08h-5.08v-5.08h-5.08v-2.54zm-76.658.612h2.54v2.54h-2.54v-1.27zm22.86 0h2.54v5.08h5.08v2.54h-5.08v10.16h5.08v2.54h-5.08v-2.54h-2.54v-10.16h-2.54v-2.54h2.54v-2.54zm-50.8 5.08h10.16v2.54h2.54v7.62h-2.54v2.54h-7.62v5.08h-2.54v-8.89zm10.16 10.16v-7.62h-7.62v7.62h3.81zm5.08-10.16h2.54v2.54h2.54v-2.54h5.08v2.54h-5.08v2.54h-2.54v10.16h-2.54v-7.62zm12.7 0h2.54v15.24h-2.54v-7.62zm5.08 0h10.16v2.54h2.54v12.7h-2.54v-12.7h-7.62v12.7h-2.54v-7.62zm30.48 0h7.62v2.54h-7.62v2.54h5.08v2.54h2.54v5.08h-2.54v2.54h-7.62v-2.54h7.62v-5.08h-5.08v-2.54h-2.54v-2.54h2.54v-1.27z" transform="translate(-3.197 -190.066)"/>
</svg>
