<?xml version="1.0" encoding="UTF-8" standalone="no"?>
<svg
   width="550.59698"
   height="176.49414"
   viewBox="0 0 145.67853 46.697156"
   version="1.1"
   id="svg1"
   sodipodi:docname="prints-available.svg"
   inkscape:version="1.4.2 (ebf0e940, 2025-05-08)"
   xmlns:inkscape="http://www.inkscape.org/namespaces/inkscape"
   xmlns:sodipodi="http://sodipodi.sourceforge.net/DTD/sodipodi-0.dtd"
   xmlns="http://www.w3.org/2000/svg"
   xmlns:svg="http://www.w3.org/2000/svg">
  <defs
     id="defs1" />
  <sodipodi:namedview
     id="namedview1"
     pagecolor="#505050"
     bordercolor="#eeeeee"
     borderopacity="1"
     inkscape:showpageshadow="0"
     inkscape:pageopacity="0"
     inkscape:pagecheckerboard="0"
     inkscape:deskcolor="#505050"
     inkscape:zoom="0.95055751"
     inkscape:cx="199.35669"
     inkscape:cy="79.427073"
     inkscape:window-width="1440"
     inkscape:window-height="900"
     inkscape:window-x="0"
     inkscape:window-y="0"
     inkscape:window-maximized="0"
     inkscape:current-layer="svg1" />
  <path
     id="rect1"
     style="fill:#ffffff;fill-opacity:1;stroke-width:0.264583"
     d="M 23.348921 -8.5057288e-05 C 10.413762 -8.5057288e-05 1.445164e-16 10.413677 0 23.348836 C 2.5066325e-15 36.283996 10.413762 46.697241 23.348921 46.697241 L 122.32979 46.697241 C 135.26495 46.697241 145.67871 36.283996 145.67871 23.348836 C 145.67871 10.413677 135.26495 -8.5057288e-05 122.32979 -8.5057288e-05 L 23.348921 -8.5057288e-05 z M 31.039911 12.901947 L 33.361729 12.901947 L 35.683031 12.901947 L 35.683031 14.062598 L 35.683031 15.223248 L 33.361729 15.223248 L 31.039911 15.223248 L 31.039911 17.54455 L 31.039911 19.866368 L 33.361729 19.866368 L 35.683031 19.866368 L 35.683031 21.027018 L 35.683031 22.187669 L 33.361729 22.187669 L 31.039911 22.187669 L 31.039911 27.991439 L 31.039911 33.795209 L 29.879261 33.795209 L 28.71861 33.795209 L 28.71861 27.991439 L 28.71861 22.187669 L 27.557959 22.187669 L 26.397309 22.187669 L 26.397309 21.027018 L 26.397309 19.866368 L 27.557959 19.866368 L 28.71861 19.866368 L 28.71861 17.54455 L 28.71861 15.223248 L 29.879261 15.223248 L 31.039911 15.223248 L 31.039911 14.062598 L 31.039911 12.901947 z M 100.68618 12.901947 L 101.84683 12.901947 L 103.00749 12.901947 L 103.00749 22.187669 L 103.00749 31.473908 L 104.16814 31.473908 L 105.3293 31.473908 L 105.3293 32.634558 L 105.3293 33.795209 L 104.16814 33.795209 L 103.00749 33.795209 L 103.00749 32.634558 L 103.00749 31.473908 L 101.84683 31.473908 L 100.68618 31.473908 L 100.68618 22.187669 L 100.68618 12.901947 z M 40.32615 19.866368 L 43.808619 19.866368 L 47.291087 19.866368 L 47.291087 21.027018 L 47.291087 22.187669 L 48.451738 22.187669 L 49.612389 22.187669 L 49.612389 26.830788 L 49.612389 31.473908 L 48.451738 31.473908 L 47.291087 31.473908 L 47.291087 32.634558 L 47.291087 33.795209 L 43.808619 33.795209 L 40.32615 33.795209 L 40.32615 32.634558 L 40.32615 31.473908 L 39.165499 31.473908 L 38.004849 31.473908 L 38.004849 26.830788 L 38.004849 22.187669 L 39.165499 22.187669 L 40.32615 22.187669 L 40.32615 21.027018 L 40.32615 19.866368 z M 40.32615 22.187669 L 40.32615 26.830788 L 40.32615 31.473908 L 43.808619 31.473908 L 47.291087 31.473908 L 47.291087 26.830788 L 47.291087 22.187669 L 43.808619 22.187669 L 40.32615 22.187669 z M 51.93369 19.866368 L 53.094857 19.866368 L 54.255508 19.866368 L 54.255508 21.027018 L 54.255508 22.187669 L 55.416158 22.187669 L 56.576809 22.187669 L 56.576809 21.027018 L 56.576809 19.866368 L 58.898627 19.866368 L 61.219928 19.866368 L 61.219928 21.027018 L 61.219928 22.187669 L 58.898627 22.187669 L 56.576809 22.187669 L 56.576809 23.348836 L 56.576809 24.509487 L 55.416158 24.509487 L 54.255508 24.509487 L 54.255508 29.152606 L 54.255508 33.795209 L 53.094857 33.795209 L 51.93369 33.795209 L 51.93369 26.830788 L 51.93369 19.866368 z M 77.470588 19.866368 L 80.953056 19.866368 L 84.435525 19.866368 L 84.435525 21.027018 L 84.435525 22.187669 L 80.953056 22.187669 L 77.470588 22.187669 L 77.470588 23.348836 L 77.470588 24.509487 L 79.792406 24.509487 L 82.113707 24.509487 L 82.113707 25.670138 L 82.113707 26.830788 L 83.274357 26.830788 L 84.435525 26.830788 L 84.435525 29.152606 L 84.435525 31.473908 L 83.274357 31.473908 L 82.113707 31.473908 L 82.113707 32.634558 L 82.113707 33.795209 L 78.631755 33.795209 L 75.149286 33.795209 L 75.149286 32.634558 L 75.149286 31.473908 L 78.631755 31.473908 L 82.113707 31.473908 L 82.113707 29.152606 L 82.113707 26.830788 L 79.792406 26.830788 L 77.470588 26.830788 L 77.470588 25.670138 L 77.470588 24.509487 L 76.309937 24.509487 L 75.149286 24.509487 L 75.149286 23.348836 L 75.149286 22.187669 L 76.309937 22.187669 L 77.470588 22.187669 L 77.470588 21.027018 L 77.470588 19.866368 z M 86.756826 19.866368 L 91.399945 19.866368 L 96.043065 19.866368 L 96.043065 21.027018 L 96.043065 22.187669 L 97.203715 22.187669 L 98.364366 22.187669 L 98.364366 27.991439 L 98.364366 33.795209 L 93.721247 33.795209 L 89.078644 33.795209 L 89.078644 32.634558 L 89.078644 31.473908 L 87.917477 31.473908 L 86.756826 31.473908 L 86.756826 29.152606 L 86.756826 26.830788 L 87.917477 26.830788 L 89.078644 26.830788 L 89.078644 25.670138 L 89.078644 24.509487 L 92.560596 24.509487 L 96.043065 24.509487 L 96.043065 23.348836 L 96.043065 22.187669 L 91.399945 22.187669 L 86.756826 22.187669 L 86.756826 21.027018 L 86.756826 19.866368 z M 89.078644 26.830788 L 89.078644 29.152606 L 89.078644 31.473908 L 92.560596 31.473908 L 96.043065 31.473908 L 96.043065 29.152606 L 96.043065 26.830788 L 92.560596 26.830788 L 89.078644 26.830788 z M 109.99516 19.866368 L 113.47763 19.866368 L 116.9601 19.866368 L 116.9601 21.027018 L 116.9601 22.187669 L 118.12075 22.187669 L 119.2814 22.187669 L 119.2814 24.509487 L 119.2814 26.830788 L 114.63828 26.830788 L 109.99516 26.830788 L 109.99516 29.152606 L 109.99516 31.473908 L 114.63828 31.473908 L 119.2814 31.473908 L 119.2814 32.634558 L 119.2814 33.795209 L 114.63828 33.795209 L 109.99516 33.795209 L 109.99516 32.634558 L 109.99516 31.473908 L 108.83451 31.473908 L 107.67386 31.473908 L 107.67386 26.830788 L 107.67386 22.187669 L 108.83451 22.187669 L 109.99516 22.187669 L 109.99516 21.027018 L 109.99516 19.866368 z M 109.99516 22.187669 L 109.99516 23.348836 L 109.99516 24.509487 L 113.47763 24.509487 L 116.9601 24.509487 L 116.9601 23.348836 L 116.9601 22.187669 L 113.47763 22.187669 L 109.99516 22.187669 z " />
  <text
     xml:space="preserve"
     style="font-style:normal;font-variant:normal;font-weight:normal;font-stretch:normal;font-size:3.17499px;font-family:'ニトロDSフォント';-inkscape-font-specification:'ニトロDSフォント, Normal';font-variant-ligatures:normal;font-variant-caps:normal;font-variant-numeric:normal;font-variant-east-asian:normal;text-align:start;letter-spacing:0px;word-spacing:-2.64583px;writing-mode:lr-tb;direction:ltr;text-anchor:start;fill:#ffffff;fill-opacity:1;stroke-width:0.264583"
     x="28.669527"
     y="-16.422436"
     id="text1"><tspan
       sodipodi:role="line"
       id="tspan1"
       style="stroke-width:0.264583"
       x="28.669527"
       y="-16.422436" /></text>
</svg>
